<svg xmlns="http://www.w3.org/2000/svg" xmlns:xlink="http://www.w3.org/1999/xlink" width="29.99999237060547" height="29.911418914794922" viewBox="0 0 29.99999237060547 29.911418914794922" fill="none">
<path   fill-rule="evenodd"  fill="#6B7280"  d="M21.07 3.91893C20.932 3.78109 20.7565 3.72846 20.59 3.73893L13.12 3.73893C11.395 3.73893 10 5.13853 10 6.85893L10 8.72413L8.12002 8.72413C6.39502 8.72413 5.00002 10.122 5.00002 11.8441L5.00002 23.0541C5.00002 24.7763 6.39502 26.1741 8.12002 26.1741L16.88 26.1741C18.605 26.1741 20 24.7763 20 23.0541L20 21.1889L21.87 21.1889C23.5965 21.1889 25 19.7911 25 18.0689L25 8.13893C25.0105 7.97317 24.958 7.79677 24.82 7.65893L21.07 3.91893ZM18.75 21.1889L18.75 21.1841L20 21.1841L20 21.1889L18.75 21.1889ZM18.75 21.1889L18.75 23.0541C18.75 24.0871 17.915 24.9241 16.88 24.9241L8.12002 24.9241C7.08502 24.9241 6.25002 24.0871 6.25002 23.0541L6.25002 11.8441C6.25002 10.8112 7.08502 9.97413 8.12002 9.97413L10 9.97413L10 18.0689C10 19.7911 11.395 21.1889 13.12 21.1889L18.75 21.1889ZM20 8.10523L20 4.98523L13.12 4.98523C12.085 4.98523 11.25 5.82329 11.25 6.85523L11.25 18.0752C11.25 19.1072 12.085 19.9452 13.12 19.9452L21.87 19.9452C22.905 19.9452 23.75 19.1072 23.75 18.0752L23.75 8.72523L20.62 8.72523C20.275 8.72523 20 8.44921 20 8.10523ZM22.86 7.48013L21.25 5.87013L21.25 7.48013L22.86 7.48013ZM14.37 9.97043L20.63 9.97043C20.975 9.97043 21.25 10.2463 21.25 10.5904C21.25 10.9345 20.975 11.2204 20.63 11.2204L14.37 11.2204C14.025 11.2204 13.75 10.9345 13.75 10.5904C13.75 10.2463 14.025 9.97043 14.37 9.97043ZM20.63 12.4631L14.37 12.4631C14.025 12.4631 13.75 12.739 13.75 13.0831C13.75 13.4272 14.025 13.7131 14.37 13.7131L20.63 13.7131C20.975 13.7131 21.25 13.4272 21.25 13.0831C21.25 12.739 20.975 12.4631 20.63 12.4631ZM16.87 14.9557L14.38 14.9557C14.0346 14.9557 13.75 15.2316 13.75 15.5757C13.75 15.9198 14.0346 16.2057 14.38 16.2057L16.87 16.2057C17.2154 16.2057 17.5 15.9198 17.5 15.5757C17.5 15.2316 17.2154 14.9557 16.87 14.9557Z">
</path>
</svg>
