<svg xmlns="http://www.w3.org/2000/svg" xmlns:xlink="http://www.w3.org/1999/xlink" width="30.00000762939453" height="29.90997314453125" viewBox="0 0 30.00000762939453 29.90997314453125" fill="none">
<path   fill-rule="evenodd"  fill="#B88484"  d="M30 14.96C30 6.69995 23.2845 0 15 0C6.7155 0 0 6.69995 0 14.96C0 23.22 6.7155 29.91 15 29.91C23.2845 29.91 30 23.22 30 14.96ZM27 14.9511C27 8.3433 21.6274 2.9911 15 2.9911C8.37264 2.9911 3 8.3433 3 14.9511C3 21.5589 8.37264 26.9211 15 26.9211C21.6274 26.9211 27 21.5589 27 14.9511ZM13.5 7.47779L13.5 16.4478L16.5 16.4478L16.5 7.47779L13.5 7.47779ZM13.5 19.4424L13.5 22.4324L16.5 22.4324L16.5 19.4424L13.5 19.4424Z">
</path>
</svg>
