<svg xmlns="http://www.w3.org/2000/svg" xmlns:xlink="http://www.w3.org/1999/xlink" width="30" height="29.91357421875" viewBox="0 0 30 29.91357421875" fill="none">
<path   fill-rule="evenodd"  fill="#A6A6A6"  d="M13.5 5.97999L13.5 1.5C13.5 0.673997 14.1716 0 15 0C15.8284 0 16.5 0.673997 16.5 1.5L16.5 5.97999C16.5 6.806 15.8284 7.47999 15 7.47999C14.1716 7.47999 13.5 6.806 13.5 5.97999ZM25.6047 6.49199L22.4247 9.67199C21.839 10.2558 20.8904 10.2558 20.3047 9.67199C19.7191 9.08797 19.7191 8.13602 20.3047 7.55199L23.4847 4.382C24.0704 3.7976 25.0186 3.79803 25.6047 4.382C26.1908 4.96596 26.1905 5.9076 25.6047 6.49199ZM6.5153 4.3826L9.6953 7.55259C10.2809 8.13661 10.2809 9.07857 9.6953 9.66259C9.1095 10.2465 8.16104 10.2465 7.5753 9.66259L4.3953 6.49259C3.80919 5.90864 3.80962 4.96698 4.3953 4.3826C4.98104 3.79821 5.92919 3.79858 6.5153 4.3826ZM1.5 13.46L6 13.46C6.82845 13.46 7.5 14.134 7.5 14.96C7.5 15.786 6.82845 16.45 6 16.45L1.5 16.45C0.67155 16.45 0 15.786 0 14.96C0 14.134 0.67155 13.46 1.5 13.46ZM24 13.46L28.5 13.46C29.3285 13.46 30 14.134 30 14.96C30 15.786 29.3285 16.45 28.5 16.45L24 16.45C23.1716 16.45 22.5 15.786 22.5 14.96C22.5 14.134 23.1716 13.46 24 13.46ZM6.5159 25.5275C6.23456 25.8083 5.85398 25.9675 5.4559 25.9675C5.05776 25.9675 4.67724 25.8083 4.3959 25.5275C3.81034 24.9435 3.81034 24.0015 4.3959 23.4175L7.5759 20.2475C7.95253 19.8587 8.51147 19.7006 9.0359 19.8375C9.56033 19.9744 9.96864 20.3845 10.1059 20.9075C10.2432 21.4304 10.0859 21.982 9.6959 22.3575L6.5159 25.5275ZM25.6028 23.4142C25.8845 23.6947 26.0428 24.0772 26.0428 24.4742C26.0428 24.8711 25.8845 25.2536 25.6028 25.5342C25.0171 26.118 24.0686 26.118 23.4828 25.5342L20.3028 22.3542C19.7343 21.7674 19.7442 20.8411 20.3228 20.2642C20.9014 19.6873 21.8342 19.6774 22.4228 20.2442L25.6028 23.4142ZM13.5 28.4136L13.5 23.9336C13.5 23.1076 14.1716 22.4336 15 22.4336C15.8284 22.4336 16.5 23.1076 16.5 23.9336L16.5 28.4136C16.5 29.2396 15.8284 29.9136 15 29.9136C14.1716 29.9136 13.5 29.2396 13.5 28.4136Z">
</path>
</svg>
