<svg xmlns="http://www.w3.org/2000/svg" xmlns:xlink="http://www.w3.org/1999/xlink" width="30" height="29.911418914794922" viewBox="0 0 30 29.911418914794922" fill="none">
<path   fill-rule="evenodd"  fill="#6B7280"  d="M15.6975 3.76381C15.3532 3.74265 15.0588 4.00098 15.0375 4.34381C15.0162 4.68875 15.2832 4.98265 15.6275 5.00381C20.8816 5.32336 24.9975 9.67805 24.9975 14.9538C24.9975 18.0287 23.5975 20.8752 21.2575 22.7438L21.2575 19.3138C21.2575 18.971 20.9717 18.6938 20.6275 18.6938C20.2821 18.6938 19.9975 18.971 19.9975 19.3138L19.9975 24.3038C19.9975 24.6466 20.2821 24.9238 20.6275 24.9238L25.6275 24.9238C25.9728 24.9238 26.2475 24.6466 26.2475 24.3038C26.2475 23.9589 25.9728 23.6838 25.6275 23.6838L22.0775 23.6838C24.6844 21.5824 26.2475 18.3948 26.2475 14.9538C26.2475 9.01778 21.6098 4.12357 15.6975 3.76381ZM9.36995 4.98521L4.37995 4.98521C4.0342 4.98521 3.74995 5.26218 3.74995 5.60521C3.74995 5.95036 4.0342 6.23521 4.37995 6.23521L7.92995 6.23521C5.32269 8.33786 3.74995 11.5101 3.74995 14.9552C3.74995 20.9117 8.41462 25.8185 14.35 26.1552C14.6946 26.1743 14.9908 25.9204 15.01 25.5752C15.0291 25.2322 14.7635 24.9343 14.42 24.9152C9.14461 24.6166 4.99995 20.2489 4.99995 14.9552C4.99995 11.8764 6.40961 9.04494 8.74995 7.17521L8.74995 10.5952C8.74995 10.9404 9.02532 11.2152 9.36995 11.2152C9.71459 11.2152 9.99995 10.9404 9.99995 10.5952L9.99995 5.60521C9.99995 5.26218 9.71459 4.98521 9.36995 4.98521Z">
</path>
</svg>
